<svg width="260" height="255" viewBox="0 0 260 255" fill="none" xmlns="http://www.w3.org/2000/svg">
<path d="M217.336 198.661C229.004 184.892 237.12 168.569 240.996 151.073C244.872 133.577 244.394 115.423 239.604 98.1465C234.813 80.8699 225.85 64.979 213.473 51.8182C201.097 38.6574 185.67 28.6139 168.498 22.5371C151.327 16.4604 132.916 14.5293 114.822 16.9072C96.7287 19.285 79.4854 25.9019 64.5508 36.1981C49.6162 46.4943 37.4298 60.1668 29.0224 76.0591C20.615 91.9514 16.234 109.596 16.25 127.5C16.2561 153.527 25.6079 178.721 42.6644 198.661L42.5019 198.796C43.0706 199.466 43.7206 200.04 44.3056 200.701C45.0369 201.522 45.825 202.295 46.5806 203.092C48.8556 205.514 51.1956 207.841 53.6494 210.024C54.3969 210.694 55.1687 211.315 55.9244 211.953C58.5244 214.152 61.1975 216.24 63.9681 218.184C64.3256 218.423 64.6506 218.734 65.0081 218.981V218.886C84.0377 232.02 106.739 239.068 130.008 239.068C153.277 239.068 175.979 232.02 195.008 218.886V218.981C195.366 218.734 195.682 218.423 196.048 218.184C198.811 216.232 201.492 214.152 204.092 211.953C204.848 211.315 205.619 210.686 206.367 210.024C208.821 207.833 211.161 205.514 213.436 203.092C214.191 202.295 214.971 201.522 215.711 200.701C216.288 200.04 216.946 199.466 217.514 198.788L217.336 198.661ZM130 63.75C137.231 63.75 144.3 65.8531 150.313 69.7934C156.326 73.7337 161.012 79.3342 163.779 85.8866C166.547 92.4391 167.271 99.6492 165.86 106.605C164.449 113.561 160.967 119.951 155.854 124.966C150.74 129.981 144.225 133.396 137.133 134.78C130.041 136.163 122.689 135.453 116.008 132.739C109.327 130.025 103.617 125.429 99.5994 119.532C95.5819 113.635 93.4375 106.702 93.4375 99.6094C93.4375 90.0989 97.2896 80.9779 104.146 74.253C111.003 67.5281 120.303 63.75 130 63.75ZM65.0569 198.661C65.1978 188.198 69.5333 178.21 77.1254 170.857C84.7175 163.505 94.9557 159.38 105.625 159.375H154.375C165.044 159.38 175.283 163.505 182.875 170.857C190.467 178.21 194.802 188.198 194.943 198.661C177.124 214.41 153.987 223.126 130 223.126C106.013 223.126 82.8763 214.41 65.0569 198.661Z" fill="#D5CFFF"/>
</svg>
