
<svg width="48" height="48" viewBox="0 0 65 65" fill="none" xmlns="http://www.w3.org/2000/svg">
<circle cx="32.5" cy="32.5" r="32.5" fill="#5E49FF"/>
<g clip-path="url(#clip0_95_101)">
<path d="M50.5905 42.5553C50.5905 43.2339 50.3209 43.8847 49.841 44.3646C49.3612 44.8444 48.7104 45.114 48.0318 45.114H17.3273C16.6487 45.114 15.9979 44.8444 15.5181 44.3646C15.0382 43.8847 14.7686 43.2339 14.7686 42.5553V27.2031C14.7686 26.5245 15.0382 25.8736 15.5181 25.3938C15.9979 24.9139 16.6487 24.6444 17.3273 24.6444H20.3261C22.3609 24.6433 24.312 23.8343 25.7506 22.3953L27.8743 20.2767C28.3528 19.798 29.0014 19.5285 29.6782 19.527H35.6758C36.3543 19.5271 37.005 19.7968 37.4848 20.2767L39.6034 22.3953C40.3163 23.1084 41.1628 23.6741 42.0944 24.06C43.026 24.4459 44.0246 24.6445 45.033 24.6444H48.0318C48.7104 24.6444 49.3612 24.9139 49.841 25.3938C50.3209 25.8736 50.5905 26.5245 50.5905 27.2031V42.5553ZM17.3273 22.0857C15.9701 22.0857 14.6685 22.6248 13.7088 23.5845C12.7491 24.5442 12.2099 25.8458 12.2099 27.2031L12.2099 42.5553C12.2099 43.9125 12.7491 45.2141 13.7088 46.1738C14.6685 47.1335 15.9701 47.6727 17.3273 47.6727H48.0318C49.389 47.6727 50.6906 47.1335 51.6503 46.1738C52.61 45.2141 53.1492 43.9125 53.1492 42.5553V27.2031C53.1492 25.8458 52.61 24.5442 51.6503 23.5845C50.6906 22.6248 49.389 22.0857 48.0318 22.0857H45.033C43.6758 22.0854 42.3744 21.546 41.415 20.5863L39.2963 18.4677C38.3369 17.5079 37.0355 16.9686 35.6783 16.9683H29.6807C28.3236 16.9686 27.0222 17.5079 26.0627 18.4677L23.9441 20.5863C22.9847 21.546 21.6832 22.0854 20.3261 22.0857H17.3273Z" fill="white"/>
<path d="M32.6795 39.9966C30.983 39.9966 29.356 39.3227 28.1564 38.1231C26.9567 36.9234 26.2828 35.2964 26.2828 33.5999C26.2828 31.9033 26.9567 30.2763 28.1564 29.0767C29.356 27.8771 30.983 27.2031 32.6795 27.2031C34.3761 27.2031 36.0031 27.8771 37.2027 29.0767C38.4024 30.2763 39.0763 31.9033 39.0763 33.5999C39.0763 35.2964 38.4024 36.9234 37.2027 38.1231C36.0031 39.3227 34.3761 39.9966 32.6795 39.9966ZM32.6795 42.5553C35.0547 42.5553 37.3325 41.6118 39.012 39.9323C40.6915 38.2529 41.635 35.975 41.635 33.5999C41.635 31.2247 40.6915 28.9469 39.012 27.2674C37.3325 25.5879 35.0547 24.6444 32.6795 24.6444C30.3044 24.6444 28.0266 25.5879 26.3471 27.2674C24.6676 28.9469 23.7241 31.2247 23.7241 33.5999C23.7241 35.975 24.6676 38.2529 26.3471 39.9323C28.0266 41.6118 30.3044 42.5553 32.6795 42.5553ZM19.886 28.4825C19.886 28.8218 19.7512 29.1472 19.5113 29.3871C19.2714 29.627 18.946 29.7618 18.6067 29.7618C18.2674 29.7618 17.942 29.627 17.702 29.3871C17.4621 29.1472 17.3273 28.8218 17.3273 28.4825C17.3273 28.1432 17.4621 27.8177 17.702 27.5778C17.942 27.3379 18.2674 27.2031 18.6067 27.2031C18.946 27.2031 19.2714 27.3379 19.5113 27.5778C19.7512 27.8177 19.886 28.1432 19.886 28.4825Z" fill="white"/>
</g>
<defs>
<clipPath id="clip0_95_101">
<rect width="40.9392" height="40.9392" fill="white" transform="translate(12.2099 11.8508)"/>
</clipPath>
</defs>
</svg>

