<svg width="35" height="35" viewBox="0 0 35 35" fill="none" xmlns="http://www.w3.org/2000/svg">
<path d="M0.00917816 17.4658C0.00917816 18.6963 0.920712 19.6602 1.95378 19.6602H3.8984L3.85586 30.6113C3.85586 30.7959 3.86801 30.9805 3.88624 31.165V32.2656C3.88624 33.7764 4.97401 35 6.31701 35H7.28931C7.35616 35 7.423 35 7.48985 34.9932C7.57492 35 7.66 35 7.74508 35H11.1785C12.5215 35 13.6093 33.7764 13.6093 32.2656V26.25C13.6093 25.04 14.4783 24.0625 15.5539 24.0625H19.4431C20.5187 24.0625 21.3877 25.04 21.3877 26.25V32.2656C21.3877 33.7764 22.4755 35 23.8185 35H27.2155C27.3066 35 27.3978 34.9932 27.4889 34.9863C27.5619 34.9932 27.6348 35 27.7077 35H28.68C30.023 35 31.1108 33.7764 31.1108 32.2656V24.6094C31.1108 24.5479 31.1108 24.4795 31.1047 24.418V19.6602H33.0554C34.1492 19.6602 35 18.7031 35 17.4658C35 16.8506 34.8177 16.3037 34.3923 15.8252L18.8111 0.546875C18.3857 0.0683594 17.8996 0 17.4742 0C17.0488 0 16.5627 0.136719 16.1981 0.478516L0.677635 15.8252C0.191483 16.3037 -0.0515938 16.8506 0.00917816 17.4658Z" fill="#7466DA"/>
</svg>
